<svg xmlns="http://www.w3.org/2000/svg" viewBox="-62 -62 124 124"><defs><linearGradient id="g" gradientUnits="userSpaceOnUse" x1="-50" y1="-50" x2="50" y2="50"><stop stop-color="#1E8FD8"/><stop offset="1" stop-color="#0B48BB"/></linearGradient></defs><g fill="#F4F8FF"><path d="M42.98 0.55 C43.79 0.56 43.97 0.59 44 0.75 C44.03 0.9 43.86 1.9 43.57 3.43 C43.5 3.79 43.3 4.61 43.09 5.43 C42.96 5.96 42.81 6.47 42.66 6.94 C42.61 7.08 42.54 7.29 42.5 7.41 C42.45 7.54 42.33 7.88 42.22 8.19 C42.12 8.49 42.01 8.78 41.99 8.84 C41.97 8.89 41.91 9.07 41.84 9.24 C41.78 9.4 41.7 9.63 41.66 9.73 C41.57 9.97 40.37 12.76 40.21 13.08 C40.15 13.21 40.06 13.4 40 13.51 C39.94 13.62 39.88 13.76 39.85 13.81 C39.79 13.93 39.7 14.1 39.47 14.5 C39.38 14.65 39.3 14.8 39.29 14.83 C39.28 14.86 39.19 15.02 39.09 15.18 C38.99 15.35 38.77 15.74 38.6 16.05 C38.14 16.84 38.16 16.81 37.8 17.38 C37.4 18 37.31 18.14 36.35 19.5 C33.35 23.75 29.22 27.84 24.87 30.82 C23 32.09 22.7 32.28 21.04 33.2 C18.99 34.32 17.99 34.8 15.56 35.81 C12.97 36.86 10.67 37.56 7.52 38.26 C4.29 38.94 1.61 39.23 -1.93 39.29 C-3.92 39.31 -4.12 39.26 -3.26 38.93 C-2.85 38.79 -2.02 38.36 -1 37.78 C2.64 35.68 6.5 31.79 10.15 26.5 C10.31 26.26 10.74 25.63 11.11 25.09 C11.48 24.56 12.07 23.7 12.42 23.19 C13.41 21.73 14.48 20.25 15.61 18.75 C17.58 16.11 20.89 12.43 23.13 10.4 C25.15 8.56 25.29 8.43 26.58 7.39 C27.4 6.72 28.57 5.82 29.02 5.51 C29.14 5.43 29.38 5.26 29.56 5.13 C29.95 4.86 30.71 4.36 30.74 4.36 C30.75 4.36 30.97 4.22 31.24 4.24 C34.94 1.87 39.34 0.5 42.98 0.55 Z"/><path d="M8.45 13.67 C10.26 13.96 11.03 15.4 9.95 16.53 C8.79 17.73 6.28 17.6 5.39 16.29 C5.16 15.96 5.16 15.21 5.37 14.84 C5.86 13.95 7.15 13.46 8.45 13.67 Z"/></g><g fill="url(#g)" fill-rule="evenodd"><path d="M-10.14 -28.58 C-7.54 -28.64 -5.54 -28.3 -3.62 -27.48 C-3.28 -27.32 -2.31 -26.76 -2.21 -26.66 C-2.17 -26.61 -2.12 -26.58 -2.1 -26.58 C-1.93 -26.57 -1.15 -25.74 -0.54 -24.92 C0.3 -23.77 1.39 -22.59 1.94 -22.27 C2 -22.23 2.13 -22.13 2.25 -22.04 C2.49 -21.84 3.43 -21.21 3.81 -20.99 C4.29 -20.72 4.57 -20.59 5.55 -20.19 C8.03 -19.25 11.89 -19.31 14.52 -20.3 C14.94 -20.46 15.69 -20.77 15.88 -20.87 C16 -20.93 16.23 -21.05 16.39 -21.13 C17.79 -21.85 19.65 -23.52 20.58 -24.91 C21.15 -25.76 21.13 -26.11 20.5 -26.15 C20.37 -26.16 19.93 -26.26 19.05 -26.5 C18.06 -26.76 17.11 -27.07 15.67 -27.6 C15.2 -27.77 13.51 -28.49 12.89 -28.78 C12.6 -28.92 12.22 -29.09 11.87 -29.25 C11.74 -29.3 11.48 -29.42 11.29 -29.5 C11.11 -29.58 10.88 -29.68 10.79 -29.71 C10.7 -29.75 10.55 -29.81 10.47 -29.86 C10.39 -29.9 10.3 -29.94 10.27 -29.94 C10.24 -29.94 9.99 -30.04 9.7 -30.16 C8.23 -30.77 6.52 -31.19 5.01 -31.35 C4.21 -31.44 2.4 -31.5 2.08 -31.43 C2 -31.42 1.82 -31.4 1.68 -31.4 C1.54 -31.4 1.16 -31.38 0.83 -31.36 C0.11 -31.31 -1.1 -31.41 -1.78 -31.59 C-2.01 -31.65 -2.33 -31.73 -2.49 -31.75 C-3 -31.85 -2.89 -31.97 -2.19 -32.08 C-1.18 -32.21 0.72 -32.72 1.56 -33.1 C3.89 -34.11 5.87 -35.64 7.11 -37.4 C7.77 -38.36 7.72 -38.63 6.8 -39.06 C4.24 -40.28 1.45 -41.21 -1.61 -41.8 C-3.43 -42.09 -6.2 -42.24 -7.73 -42.16 C-8.92 -37.64 -9.72 -33.11 -10.14 -28.58 Z"/><path d="M-7.73 -42.16 C-9.12 -42.09 -9.84 -42.03 -10.5 -41.95 C-11.36 -41.85 -12.5 -41.69 -12.59 -41.66 C-12.62 -41.64 -12.8 -41.62 -12.98 -41.59 C-13.61 -41.49 -16.31 -40.86 -17.06 -40.62 C-17.33 -40.53 -17.76 -40.39 -18.02 -40.31 C-19.01 -39.99 -20.4 -39.47 -21.86 -38.84 C-22.32 -38.65 -24.26 -37.7 -24.36 -37.62 C-24.39 -37.6 -24.63 -37.47 -24.91 -37.32 C-25.18 -37.18 -25.71 -36.88 -26.09 -36.65 C-26.46 -36.41 -26.91 -36.15 -27.06 -36.05 C-30.52 -34.01 -34.43 -30.53 -37.45 -26.81 C-37.75 -26.44 -38.38 -25.62 -38.47 -25.48 C-38.54 -25.39 -38.67 -25.2 -38.76 -25.06 C-38.92 -24.85 -39.16 -24.5 -39.93 -23.34 C-40.28 -22.83 -40.46 -22.52 -41.04 -21.5 C-41.37 -20.92 -41.67 -20.39 -41.71 -20.32 C-41.81 -20.15 -42.72 -18.31 -42.92 -17.89 C-43.18 -17.31 -43.2 -17.26 -43.41 -16.76 C-43.8 -15.81 -43.92 -15.49 -44.15 -14.83 C-44.23 -14.59 -44.35 -14.26 -44.41 -14.11 C-44.46 -13.96 -44.56 -13.7 -44.61 -13.53 C-44.66 -13.36 -44.76 -13.07 -44.81 -12.89 C-45 -12.3 -45.35 -11.05 -45.42 -10.7 C-45.44 -10.58 -45.5 -10.37 -45.54 -10.22 C-45.61 -9.97 -45.7 -9.57 -45.93 -8.49 C-46.18 -7.33 -46.42 -5.91 -46.52 -4.99 C-46.55 -4.7 -46.59 -4.43 -46.6 -4.39 C-46.66 -4.19 -46.81 -1.42 -46.83 -0.23 C-46.85 3.26 -46.38 7.39 -45.69 9.78 C-45.64 9.96 -45.6 10.13 -45.6 10.18 C-45.6 10.22 -45.55 10.42 -45.49 10.62 C-45.44 10.83 -45.35 11.14 -45.3 11.34 C-45.04 12.26 -44.63 13.49 -44.05 15.1 C-44.01 15.22 -43.96 15.36 -43.93 15.42 C-43.9 15.47 -43.81 15.68 -43.73 15.88 C-43.65 16.08 -43.55 16.31 -43.51 16.4 C-43.48 16.48 -43.34 16.79 -43.21 17.09 C-42.97 17.65 -41.94 19.74 -41.72 20.11 C-41.64 20.24 -41.1 21.16 -41.05 21.26 C-40.9 21.52 -40.64 21.94 -40.41 22.25 C-40.18 22.57 -40.08 22.71 -39.63 23.38 C-38.69 24.77 -37.3 26.44 -35.99 27.75 C-35.16 28.58 -35.05 28.68 -34.25 29.2 C-31.72 30.86 -29.76 31.74 -26.83 32.52 C-24.6 33.1 -20.8 33.19 -18.15 32.71 C-16.59 32.42 -14.57 31.8 -12.89 31.09 C-10.29 30.01 -7.39 28.07 -5.27 25.99 C-4.5 25.22 -4.75 25.8 -5.95 27.56 C-6.97 29.06 -8.81 30.92 -10.52 32.18 C-13.96 34.74 -17.52 36.26 -21.96 37.02 C-22.48 37.1 -22.64 37.23 -22.44 37.4 C-22.3 37.51 -20.93 38.16 -20 38.56 C-13.16 41.47 -6.12 42.63 1.58 42.06 C5.8 41.69 9.52 40.99 13.01 39.88 C15.08 39.2 15.33 39.12 16.86 38.5 C21.21 36.7 25.73 33.98 29.68 30.77 C32 28.87 35.29 25.47 36.92 23.3 C37.38 22.69 37.69 22.28 37.88 22.02 C37.97 21.9 38.14 21.68 38.25 21.53 C38.55 21.13 39.75 19.29 40.34 18.34 C40.57 17.97 40.79 17.57 41.44 16.41 C41.59 16.14 41.61 16.1 41.72 15.88 C41.78 15.76 41.85 15.62 41.87 15.58 C42 15.34 42.43 14.49 42.55 14.24 C42.63 14.08 42.75 13.82 42.83 13.65 C42.9 13.5 43.08 13.11 43.21 12.81 C43.35 12.5 43.53 12.09 43.62 11.9 C43.71 11.7 43.88 11.28 43.99 10.97 C44.11 10.65 44.23 10.32 44.26 10.24 C44.29 10.15 44.37 9.94 44.43 9.76 C44.49 9.58 44.56 9.39 44.58 9.33 C44.6 9.28 44.67 9.09 44.73 8.9 C44.79 8.72 44.87 8.48 44.92 8.36 C44.96 8.25 45 8.12 45 8.1 C45 8.07 45.02 7.97 45.05 7.89 C45.09 7.79 45.16 7.57 45.23 7.37 C45.28 7.18 45.36 6.94 45.4 6.85 C45.49 6.57 45.81 5.28 45.96 4.55 C46.01 4.36 46.09 4.01 46.14 3.76 C46.92 0.54 47.05 -3.75 46.36 -5.26 C45.62 -6.93 44.11 -7.7 40.82 -8.09 C39.6 -8.23 34.96 -8.16 32.98 -7.97 C28.51 -7.51 25.66 -7.04 21.76 -6.1 C21.43 -6.02 20.96 -5.91 20.7 -5.85 C19.85 -5.65 16.25 -4.61 14.1 -3.95 C12.34 -3.42 8.86 -2.24 6.67 -1.45 C5.84 -1.15 5.08 -0.88 4.97 -0.84 C4.82 -0.79 2.45 0.1 1.75 0.37 C1.65 0.4 1.37 0.51 1.11 0.61 C0.86 0.7 0.37 0.89 0.02 1.03 C-0.32 1.17 -0.69 1.31 -0.78 1.35 C-0.87 1.38 -1.23 1.52 -1.58 1.67 C-1.93 1.8 -2.36 1.98 -2.53 2.04 C-2.71 2.1 -4.08 2.64 -5.58 3.24 C-10.26 5.07 -10.68 5.23 -11.39 5.44 C-11.52 5.48 -11.8 5.57 -12.03 5.65 C-12.26 5.73 -12.65 5.86 -12.89 5.93 C-13.13 6 -13.42 6.09 -13.53 6.12 C-13.72 6.19 -14.25 6.34 -15.01 6.54 C-15.19 6.59 -15.56 6.68 -15.82 6.74 C-16.07 6.8 -16.43 6.87 -16.61 6.92 C-16.79 6.96 -17.13 7.03 -17.38 7.06 C-17.61 7.1 -17.95 7.15 -18.13 7.18 C-19.22 7.36 -19.6 7.39 -20.68 7.43 C-21.89 7.47 -23.43 7.43 -23.84 7.34 C-23.95 7.31 -24.24 7.26 -24.47 7.23 C-24.7 7.2 -25.01 7.14 -25.15 7.1 C-25.8 6.92 -26.65 6.64 -26.91 6.51 C-27.07 6.45 -27.36 6.31 -27.56 6.21 C-29.04 5.52 -30.53 4.21 -31.53 2.73 C-31.93 2.13 -32.41 1.18 -32.61 0.6 C-32.87 -0.19 -33.14 -1.27 -33.29 -2.17 C-33.31 -2.31 -33.36 -2.95 -33.4 -3.6 C-33.47 -4.84 -33.48 -4.7 -33.28 -6.72 C-33.14 -8.13 -32.71 -10.01 -32.22 -11.3 C-32.15 -11.5 -32.03 -11.82 -31.96 -12.03 C-31.81 -12.44 -31.63 -12.9 -31.48 -13.2 C-31.43 -13.31 -31.39 -13.41 -31.39 -13.43 C-31.39 -13.45 -31.3 -13.66 -31.18 -13.9 C-29.3 -17.93 -26.59 -21.21 -22.89 -23.96 C-22.48 -24.26 -21.4 -24.99 -21.17 -25.11 C-21.12 -25.14 -20.82 -25.31 -20.51 -25.5 C-19 -26.38 -17.01 -27.24 -15.4 -27.7 C-13.25 -28.31 -11.89 -28.53 -10.14 -28.58 C-7.88 -32.2 -7.3 -38.63 -7.73 -42.16 Z M42.98 0.55 C43.79 0.56 43.97 0.59 44 0.75 C44.03 0.9 43.86 1.9 43.57 3.43 C43.5 3.79 43.3 4.61 43.09 5.43 C42.96 5.96 42.81 6.47 42.66 6.94 C42.61 7.08 42.54 7.29 42.5 7.41 C42.45 7.54 42.33 7.88 42.22 8.19 C42.12 8.49 42.01 8.78 41.99 8.84 C41.97 8.89 41.91 9.07 41.84 9.24 C41.78 9.4 41.7 9.63 41.66 9.73 C41.57 9.97 40.37 12.76 40.21 13.08 C40.15 13.21 40.06 13.4 40 13.51 C39.94 13.62 39.88 13.76 39.85 13.81 C39.79 13.93 39.7 14.1 39.47 14.5 C39.38 14.65 39.3 14.8 39.29 14.83 C39.28 14.86 39.19 15.02 39.09 15.18 C38.99 15.35 38.77 15.74 38.6 16.05 C38.14 16.84 38.16 16.81 37.8 17.38 C37.4 18 37.31 18.14 36.35 19.5 C33.35 23.75 29.22 27.84 24.87 30.82 C23 32.09 22.7 32.28 21.04 33.2 C18.99 34.32 17.99 34.8 15.56 35.81 C12.97 36.86 10.67 37.56 7.52 38.26 C4.29 38.94 1.61 39.23 -1.93 39.29 C-3.92 39.31 -4.12 39.26 -3.26 38.93 C-2.85 38.79 -2.02 38.36 -1 37.78 C2.64 35.68 6.5 31.79 10.15 26.5 C10.31 26.26 10.74 25.63 11.11 25.09 C11.48 24.56 12.07 23.7 12.42 23.19 C13.41 21.73 14.48 20.25 15.61 18.75 C17.58 16.11 20.89 12.43 23.13 10.4 C25.15 8.56 25.29 8.43 26.58 7.39 C27.4 6.72 28.57 5.82 29.02 5.51 C29.14 5.43 29.38 5.26 29.56 5.13 C29.95 4.86 30.71 4.36 30.74 4.36 C30.75 4.36 30.97 4.22 31.24 4.24 C34.94 1.87 39.34 0.5 42.98 0.55 Z M-6.2 26.99 C-6.4 24.02 -4.65 23.96 -1.1 24.71 C-3.66 24.16 -5.02 24.42 -6.2 26.99 Z M8.45 13.67 C10.26 13.96 11.03 15.4 9.95 16.53 C8.79 17.73 6.28 17.6 5.39 16.29 C5.16 15.96 5.16 15.21 5.37 14.84 C5.86 13.95 7.15 13.46 8.45 13.67 Z M7.78 15.46 C7.78 15.46 7.78 15.46 7.78 15.46 C7.78 15.46 7.78 15.46 7.78 15.46 C7.78 15.46 7.78 15.46 7.78 15.46 C7.78 15.46 7.78 15.46 7.78 15.46 Z"/><path d="M37.16 8.49 C37.15 8.56 37.1 8.71 37.06 8.81 C37.02 8.9 36.95 9.1 36.9 9.24 C36.42 10.51 36.27 10.86 35.42 12.6 C34.98 13.5 34.91 13.64 34.34 14.61 C34.11 15 33.84 15.47 33.73 15.64 C33.63 15.81 33.44 16.12 33.3 16.32 C33.16 16.53 32.96 16.82 32.87 16.97 C31.07 19.77 28.44 22.9 25.99 25.15 C25.4 25.69 24.17 26.76 23.84 27.01 C23.66 27.15 23.44 27.34 23.34 27.42 C23.18 27.55 21.26 28.96 20.69 29.36 C19.53 30.17 18.27 30.94 16.61 31.83 C15.82 32.25 15.13 32.62 15.06 32.66 C14.88 32.76 13.43 33.41 12.76 33.69 C12.46 33.81 11.57 34.13 10.79 34.41 C10.01 34.68 9.34 34.92 9.3 34.95 C8.93 35.18 10.54 34.87 12.22 34.37 C12.64 34.24 13.15 34.09 13.35 34.03 C13.55 33.97 14.17 33.75 14.72 33.53 C16.79 32.72 17.23 32.51 19.14 31.47 C20.89 30.52 22 29.82 23.33 28.83 C24.72 27.79 25.57 27.09 26.32 26.36 C26.45 26.23 26.74 25.95 27 25.71 C27.85 24.9 28.78 23.89 29.64 22.86 C29.92 22.51 30.18 22.19 30.22 22.15 C30.47 21.85 31.61 20.3 31.9 19.87 C32.55 18.9 33.79 16.89 33.87 16.69 C33.89 16.64 33.99 16.45 34.1 16.25 C34.22 16.05 34.37 15.76 34.44 15.59 C34.51 15.43 34.61 15.23 34.65 15.16 C34.78 14.94 34.83 14.84 35 14.46 C35.08 14.26 35.2 14.01 35.26 13.89 C35.39 13.63 36.5 11.04 36.5 10.99 C36.5 10.98 36.55 10.83 36.61 10.67 C36.77 10.27 36.82 10.12 36.92 9.8 C36.98 9.65 37.05 9.43 37.1 9.31 C37.14 9.19 37.18 9.06 37.17 9.02 C37.17 8.98 37.2 8.88 37.23 8.8 C37.31 8.62 37.33 8.38 37.25 8.37 C37.22 8.35 37.18 8.41 37.16 8.49 Z"/><path d="M28.82 13.66 C26.96 16.79 24.68 19.63 22.11 22.01 C21.86 22.24 21.49 22.58 21.3 22.76 C20.44 23.57 17.55 25.81 16.17 26.73 C15.73 27.03 14.74 27.62 14.07 27.98 C13.65 28.21 13.31 28.42 13.31 28.44 C13.31 28.51 13.59 28.48 13.77 28.39 C13.86 28.35 14.05 28.27 14.19 28.21 C15.5 27.62 16.32 27.21 17.18 26.7 C18.29 26.03 18.62 25.82 19.46 25.21 C23.24 22.42 26.75 18.17 29.11 13.55 C29.73 12.32 29.58 12.38 28.82 13.66 Z"/><path d="M-5.01 27.78 C-4.17 28.82 -4.15 28.85 -2.88 30.46 C-1.48 32.22 0.39 36.33 2.54 34.8 C6.88 31.68 11.97 30.36 15.39 25.94 C15.75 25.46 15.78 25.39 15.93 25.1 C15.84 25.13 15.04 25.39 14.49 25.54 C10.51 26.61 6.61 26.46 2.57 25.58 C-0.39 24.91 -5.02 24.95 -5.01 27.78 Z"/><path d="M16.54 -7.41 C16.54 -6.69 15.96 -6.11 15.24 -6.11 C14.52 -6.11 13.94 -6.69 13.94 -7.41 C13.94 -8.13 14.52 -8.71 15.24 -8.71 C15.96 -8.71 16.54 -8.13 16.54 -7.41 Z"/><path d="M23.34 -12.91 C23.34 -11.75 22.4 -10.81 21.24 -10.81 C20.08 -10.81 19.14 -11.75 19.14 -12.91 C19.14 -14.07 20.08 -15.01 21.24 -15.01 C22.4 -15.01 23.34 -14.07 23.34 -12.91 Z"/><path d="M24.91 -19.55 C22.31 -20.41 23.17 -23.88 25.77 -23.88 C26.64 -27.34 30.97 -27.34 32.71 -24.75 C36.17 -24.75 37.04 -20.41 33.57 -18.68 C32.71 -15.21 26.64 -15.21 24.91 -19.55 Z"/></g></svg>
